{
    "asset" : {
        "generator" : "Khronos glTF Blender I/O v1.2.75",
        "version" : "2.0"
    },
    "scene" : 0,
    "scenes" : [
        {
            "name" : "Scene",
            "nodes" : [
                0,
                1,
                2,
                3
            ]
        }
    ],
    "nodes" : [
        {
            "mesh" : 0,
            "name" : "Balloon",
            "scale" : [
                0,
                0,
                0
            ],
            "translation" : [
                -0.0044585540890693665,
                -0.04360131546854973,
                -0.1269828975200653
            ]
        },
        {
            "mesh" : 1,
            "name" : "Balloon.001",
            "scale" : [
                0,
                0,
                0
            ],
            "translation" : [
                0.06303700804710388,
                -0.04360131546854973,
                -0.05948733538389206
            ]
        },
        {
            "mesh" : 2,
            "name" : "Balloon.002",
            "scale" : [
                0,
                0,
                0
            ],
            "translation" : [
                -0.13944970071315765,
                -0.04360131546854973,
                0.008008234202861786
            ]
        },
        {
            "mesh" : 3,
            "name" : "Balloon.003",
            "scale" : [
                0,
                0,
                0
            ],
            "translation" : [
                -0.07195411622524261,
                -0.04360131546854973,
                -0.05948732793331146
            ]
        }
    ],
    "animations" : [
        {
            "channels" : [
                {
                    "sampler" : 0,
                    "target" : {
                        "node" : 0,
                        "path" : "translation"
                    }
                },
                {
                    "sampler" : 1,
                    "target" : {
                        "node" : 0,
                        "path" : "rotation"
                    }
                },
                {
                    "sampler" : 2,
                    "target" : {
                        "node" : 0,
                        "path" : "scale"
                    }
                }
            ],
            "name" : "Balloon|Balloon|Balloon|Balloon|Balloon|Balloon|Balloon.001Acti",
            "samplers" : [
                {
                    "input" : 13,
                    "interpolation" : "LINEAR",
                    "output" : 14
                },
                {
                    "input" : 13,
                    "interpolation" : "LINEAR",
                    "output" : 15
                },
                {
                    "input" : 13,
                    "interpolation" : "LINEAR",
                    "output" : 16
                }
            ]
        },
        {
            "channels" : [
                {
                    "sampler" : 0,
                    "target" : {
                        "node" : 1,
                        "path" : "translation"
                    }
                },
                {
                    "sampler" : 1,
                    "target" : {
                        "node" : 1,
                        "path" : "rotation"
                    }
                },
                {
                    "sampler" : 2,
                    "target" : {
                        "node" : 1,
                        "path" : "scale"
                    }
                }
            ],
            "name" : "Balloon|Balloon|Balloon|Balloon|Balloon|Balloon|Balloon.001",
            "samplers" : [
                {
                    "input" : 17,
                    "interpolation" : "LINEAR",
                    "output" : 18
                },
                {
                    "input" : 19,
                    "interpolation" : "LINEAR",
                    "output" : 20
                },
                {
                    "input" : 19,
                    "interpolation" : "LINEAR",
                    "output" : 21
                }
            ]
        },
        {
            "channels" : [
                {
                    "sampler" : 0,
                    "target" : {
                        "node" : 2,
                        "path" : "translation"
                    }
                },
                {
                    "sampler" : 1,
                    "target" : {
                        "node" : 2,
                        "path" : "rotation"
                    }
                },
                {
                    "sampler" : 2,
                    "target" : {
                        "node" : 2,
                        "path" : "scale"
                    }
                }
            ],
            "name" : "Balloon|Balloon|Balloon|Balloon|Balloon|Balloon|Balloon.002",
            "samplers" : [
                {
                    "input" : 22,
                    "interpolation" : "LINEAR",
                    "output" : 23
                },
                {
                    "input" : 24,
                    "interpolation" : "LINEAR",
                    "output" : 25
                },
                {
                    "input" : 24,
                    "interpolation" : "LINEAR",
                    "output" : 26
                }
            ]
        },
        {
            "channels" : [
                {
                    "sampler" : 0,
                    "target" : {
                        "node" : 3,
                        "path" : "translation"
                    }
                },
                {
                    "sampler" : 1,
                    "target" : {
                        "node" : 3,
                        "path" : "rotation"
                    }
                },
                {
                    "sampler" : 2,
                    "target" : {
                        "node" : 3,
                        "path" : "scale"
                    }
                }
            ],
            "name" : "Balloon|Balloon|Balloon|Balloon|Balloon|Balloon|Balloon.003",
            "samplers" : [
                {
                    "input" : 27,
                    "interpolation" : "LINEAR",
                    "output" : 28
                },
                {
                    "input" : 27,
                    "interpolation" : "LINEAR",
                    "output" : 29
                },
                {
                    "input" : 27,
                    "interpolation" : "LINEAR",
                    "output" : 30
                }
            ]
        }
    ],
    "materials" : [
        {
            "doubleSided" : true,
            "emissiveFactor" : [
                0,
                0,
                0
            ],
            "name" : "Globos_Rosa",
            "pbrMetallicRoughness" : {
                "baseColorFactor" : [
                    0.800000011920929,
                    0.800000011920929,
                    0.800000011920929,
                    1
                ],
                "metallicFactor" : 1,
                "roughnessFactor" : 0.5527864098548889
            }
        },
        {
            "doubleSided" : true,
            "emissiveFactor" : [
                0,
                0,
                0
            ],
            "name" : "Globos_Rosa.001",
            "pbrMetallicRoughness" : {
                "baseColorFactor" : [
                    0.800000011920929,
                    0.800000011920929,
                    0.800000011920929,
                    1
                ],
                "metallicFactor" : 1,
                "roughnessFactor" : 0.5527864098548889
            }
        },
        {
            "doubleSided" : true,
            "emissiveFactor" : [
                0,
                0,
                0
            ],
            "name" : "Globos_Rosa.002",
            "pbrMetallicRoughness" : {
                "baseColorFactor" : [
                    0.800000011920929,
                    0.800000011920929,
                    0.800000011920929,
                    1
                ],
                "metallicFactor" : 1,
                "roughnessFactor" : 0.5527864098548889
            }
        },
        {
            "doubleSided" : true,
            "emissiveFactor" : [
                0,
                0,
                0
            ],
            "name" : "Globos_Rosa.003",
            "pbrMetallicRoughness" : {
                "baseColorFactor" : [
                    0.800000011920929,
                    0.800000011920929,
                    0.800000011920929,
                    1
                ],
                "metallicFactor" : 1,
                "roughnessFactor" : 0.5527864098548889
            }
        }
    ],
    "meshes" : [
        {
            "name" : "Sphere.001",
            "primitives" : [
                {
                    "attributes" : {
                        "POSITION" : 0,
                        "NORMAL" : 1,
                        "TEXCOORD_0" : 2
                    },
                    "indices" : 3,
                    "material" : 0
                }
            ]
        },
        {
            "name" : "Sphere.002",
            "primitives" : [
                {
                    "attributes" : {
                        "POSITION" : 4,
                        "NORMAL" : 5,
                        "TEXCOORD_0" : 6
                    },
                    "indices" : 3,
                    "material" : 1
                }
            ]
        },
        {
            "name" : "Sphere.003",
            "primitives" : [
                {
                    "attributes" : {
                        "POSITION" : 7,
                        "NORMAL" : 8,
                        "TEXCOORD_0" : 9
                    },
                    "indices" : 3,
                    "material" : 2
                }
            ]
        },
        {
            "name" : "Sphere.004",
            "primitives" : [
                {
                    "attributes" : {
                        "POSITION" : 10,
                        "NORMAL" : 11,
                        "TEXCOORD_0" : 12
                    },
                    "indices" : 3,
                    "material" : 3
                }
            ]
        }
    ],
    "accessors" : [
        {
            "bufferView" : 0,
            "componentType" : 5126,
            "count" : 1745,
            "max" : [
                1.0000003576278687,
                1,
                0.9999998211860657
            ],
            "min" : [
                -1,
                -7.583410263061523,
                -1.000000238418579
            ],
            "type" : "VEC3"
        },
        {
            "bufferView" : 1,
            "componentType" : 5126,
            "count" : 1745,
            "type" : "VEC3"
        },
        {
            "bufferView" : 2,
            "componentType" : 5126,
            "count" : 1745,
            "type" : "VEC2"
        },
        {
            "bufferView" : 3,
            "componentType" : 5123,
            "count" : 7008,
            "type" : "SCALAR"
        },
        {
            "bufferView" : 4,
            "componentType" : 5126,
            "count" : 1745,
            "max" : [
                1.0000003576278687,
                1,
                0.9999998211860657
            ],
            "min" : [
                -1,
                -7.583410263061523,
                -1.000000238418579
            ],
            "type" : "VEC3"
        },
        {
            "bufferView" : 5,
            "componentType" : 5126,
            "count" : 1745,
            "type" : "VEC3"
        },
        {
            "bufferView" : 6,
            "componentType" : 5126,
            "count" : 1745,
            "type" : "VEC2"
        },
        {
            "bufferView" : 7,
            "componentType" : 5126,
            "count" : 1745,
            "max" : [
                1.0000003576278687,
                1,
                0.9999998211860657
            ],
            "min" : [
                -1,
                -7.583410263061523,
                -1.000000238418579
            ],
            "type" : "VEC3"
        },
        {
            "bufferView" : 8,
            "componentType" : 5126,
            "count" : 1745,
            "type" : "VEC3"
        },
        {
            "bufferView" : 9,
            "componentType" : 5126,
            "count" : 1745,
            "type" : "VEC2"
        },
        {
            "bufferView" : 10,
            "componentType" : 5126,
            "count" : 1745,
            "max" : [
                1.0000003576278687,
                1,
                0.9999998211860657
            ],
            "min" : [
                -1,
                -7.583410263061523,
                -1.000000238418579
            ],
            "type" : "VEC3"
        },
        {
            "bufferView" : 11,
            "componentType" : 5126,
            "count" : 1745,
            "type" : "VEC3"
        },
        {
            "bufferView" : 12,
            "componentType" : 5126,
            "count" : 1745,
            "type" : "VEC2"
        },
        {
            "bufferView" : 13,
            "componentType" : 5126,
            "count" : 81,
            "max" : [
                2.933333333333333
            ],
            "min" : [
                0.26666666666666666
            ],
            "type" : "SCALAR"
        },
        {
            "bufferView" : 14,
            "componentType" : 5126,
            "count" : 81,
            "type" : "VEC3"
        },
        {
            "bufferView" : 15,
            "componentType" : 5126,
            "count" : 81,
            "type" : "VEC4"
        },
        {
            "bufferView" : 16,
            "componentType" : 5126,
            "count" : 81,
            "type" : "VEC3"
        },
        {
            "bufferView" : 17,
            "componentType" : 5126,
            "count" : 82,
            "max" : [
                3
            ],
            "min" : [
                0.3
            ],
            "type" : "SCALAR"
        },
        {
            "bufferView" : 18,
            "componentType" : 5126,
            "count" : 82,
            "type" : "VEC3"
        },
        {
            "bufferView" : 19,
            "componentType" : 5126,
            "count" : 81,
            "max" : [
                2.966666666666667
            ],
            "min" : [
                0.3
            ],
            "type" : "SCALAR"
        },
        {
            "bufferView" : 20,
            "componentType" : 5126,
            "count" : 81,
            "type" : "VEC4"
        },
        {
            "bufferView" : 21,
            "componentType" : 5126,
            "count" : 81,
            "type" : "VEC3"
        },
        {
            "bufferView" : 22,
            "componentType" : 5126,
            "count" : 82,
            "max" : [
                2.7333333333333334
            ],
            "min" : [
                0.03333333333333333
            ],
            "type" : "SCALAR"
        },
        {
            "bufferView" : 23,
            "componentType" : 5126,
            "count" : 82,
            "type" : "VEC3"
        },
        {
            "bufferView" : 24,
            "componentType" : 5126,
            "count" : 81,
            "max" : [
                2.7
            ],
            "min" : [
                0.03333333333333333
            ],
            "type" : "SCALAR"
        },
        {
            "bufferView" : 25,
            "componentType" : 5126,
            "count" : 81,
            "type" : "VEC4"
        },
        {
            "bufferView" : 26,
            "componentType" : 5126,
            "count" : 81,
            "type" : "VEC3"
        },
        {
            "bufferView" : 27,
            "componentType" : 5126,
            "count" : 81,
            "max" : [
                2.8333333333333335
            ],
            "min" : [
                0.16666666666666666
            ],
            "type" : "SCALAR"
        },
        {
            "bufferView" : 28,
            "componentType" : 5126,
            "count" : 81,
            "type" : "VEC3"
        },
        {
            "bufferView" : 29,
            "componentType" : 5126,
            "count" : 81,
            "type" : "VEC4"
        },
        {
            "bufferView" : 30,
            "componentType" : 5126,
            "count" : 81,
            "type" : "VEC3"
        }
    ],
    "bufferViews" : [
        {
            "buffer" : 0,
            "byteLength" : 20940,
            "byteOffset" : 0
        },
        {
            "buffer" : 0,
            "byteLength" : 20940,
            "byteOffset" : 20940
        },
        {
            "buffer" : 0,
            "byteLength" : 13960,
            "byteOffset" : 41880
        },
        {
            "buffer" : 0,
            "byteLength" : 14016,
            "byteOffset" : 55840
        },
        {
            "buffer" : 0,
            "byteLength" : 20940,
            "byteOffset" : 69856
        },
        {
            "buffer" : 0,
            "byteLength" : 20940,
            "byteOffset" : 90796
        },
        {
            "buffer" : 0,
            "byteLength" : 13960,
            "byteOffset" : 111736
        },
        {
            "buffer" : 0,
            "byteLength" : 20940,
            "byteOffset" : 125696
        },
        {
            "buffer" : 0,
            "byteLength" : 20940,
            "byteOffset" : 146636
        },
        {
            "buffer" : 0,
            "byteLength" : 13960,
            "byteOffset" : 167576
        },
        {
            "buffer" : 0,
            "byteLength" : 20940,
            "byteOffset" : 181536
        },
        {
            "buffer" : 0,
            "byteLength" : 20940,
            "byteOffset" : 202476
        },
        {
            "buffer" : 0,
            "byteLength" : 13960,
            "byteOffset" : 223416
        },
        {
            "buffer" : 0,
            "byteLength" : 324,
            "byteOffset" : 237376
        },
        {
            "buffer" : 0,
            "byteLength" : 972,
            "byteOffset" : 237700
        },
        {
            "buffer" : 0,
            "byteLength" : 1296,
            "byteOffset" : 238672
        },
        {
            "buffer" : 0,
            "byteLength" : 972,
            "byteOffset" : 239968
        },
        {
            "buffer" : 0,
            "byteLength" : 328,
            "byteOffset" : 240940
        },
        {
            "buffer" : 0,
            "byteLength" : 984,
            "byteOffset" : 241268
        },
        {
            "buffer" : 0,
            "byteLength" : 324,
            "byteOffset" : 242252
        },
        {
            "buffer" : 0,
            "byteLength" : 1296,
            "byteOffset" : 242576
        },
        {
            "buffer" : 0,
            "byteLength" : 972,
            "byteOffset" : 243872
        },
        {
            "buffer" : 0,
            "byteLength" : 328,
            "byteOffset" : 244844
        },
        {
            "buffer" : 0,
            "byteLength" : 984,
            "byteOffset" : 245172
        },
        {
            "buffer" : 0,
            "byteLength" : 324,
            "byteOffset" : 246156
        },
        {
            "buffer" : 0,
            "byteLength" : 1296,
            "byteOffset" : 246480
        },
        {
            "buffer" : 0,
            "byteLength" : 972,
            "byteOffset" : 247776
        },
        {
            "buffer" : 0,
            "byteLength" : 324,
            "byteOffset" : 248748
        },
        {
            "buffer" : 0,
            "byteLength" : 972,
            "byteOffset" : 249072
        },
        {
            "buffer" : 0,
            "byteLength" : 1296,
            "byteOffset" : 250044
        },
        {
            "buffer" : 0,
            "byteLength" : 972,
            "byteOffset" : 251340
        }
    ],
    "buffers" : [
        {
            "byteLength" : 252312,
            "uri" : "data:application/octet-stream;base64,"
        }
    ]
}
