{
    "asset" : {
        "generator" : "Khronos glTF Blender I/O v1.2.75",
        "version" : "2.0"
    },
    "scene" : 0,
    "scenes" : [
        {
            "name" : "Scene",
            "nodes" : [
                0
            ]
        }
    ],
    "nodes" : [
        {
            "mesh" : 0,
            "name" : "Balloon",
            "scale" : [
                0,
                0,
                0
            ],
            "translation" : [
                -0.0014390823198482394,
                -0.0008720263140276074,
                -0.0011897465446963906
            ]
        }
    ],
    "animations" : [
        {
            "channels" : [
                {
                    "sampler" : 0,
                    "target" : {
                        "node" : 0,
                        "path" : "translation"
                    }
                },
                {
                    "sampler" : 1,
                    "target" : {
                        "node" : 0,
                        "path" : "rotation"
                    }
                },
                {
                    "sampler" : 2,
                    "target" : {
                        "node" : 0,
                        "path" : "scale"
                    }
                }
            ],
            "name" : "Balloon|Balloon|Balloon|Balloon|Balloon|Balloon|Balloon|Bal.027",
            "samplers" : [
                {
                    "input" : 4,
                    "interpolation" : "LINEAR",
                    "output" : 5
                },
                {
                    "input" : 4,
                    "interpolation" : "LINEAR",
                    "output" : 6
                },
                {
                    "input" : 4,
                    "interpolation" : "LINEAR",
                    "output" : 7
                }
            ]
        }
    ],
    "materials" : [
        {
            "doubleSided" : true,
            "emissiveFactor" : [
                0,
                0,
                0
            ],
            "name" : "Globos_Rosa.003",
            "pbrMetallicRoughness" : {
                "baseColorFactor" : [
                    0.800000011920929,
                    0.800000011920929,
                    0.800000011920929,
                    1
                ],
                "metallicFactor" : 1,
                "roughnessFactor" : 0.5527864098548889
            }
        }
    ],
    "meshes" : [
        {
            "name" : "Sphere.004",
            "primitives" : [
                {
                    "attributes" : {
                        "POSITION" : 0,
                        "NORMAL" : 1,
                        "TEXCOORD_0" : 2
                    },
                    "indices" : 3,
                    "material" : 0
                }
            ]
        }
    ],
    "accessors" : [
        {
            "bufferView" : 0,
            "componentType" : 5126,
            "count" : 1776,
            "max" : [
                84.84634399414062,
                518.3805541992188,
                72.01679229736328
            ],
            "min" : [
                -36.837120056152344,
                -3.848846435546875,
                -49.66664123535156
            ],
            "type" : "VEC3"
        },
        {
            "bufferView" : 1,
            "componentType" : 5126,
            "count" : 1776,
            "type" : "VEC3"
        },
        {
            "bufferView" : 2,
            "componentType" : 5126,
            "count" : 1776,
            "type" : "VEC2"
        },
        {
            "bufferView" : 3,
            "componentType" : 5123,
            "count" : 7008,
            "type" : "SCALAR"
        },
        {
            "bufferView" : 4,
            "componentType" : 5126,
            "count" : 81,
            "max" : [
                2.7
            ],
            "min" : [
                0.03333333333333333
            ],
            "type" : "SCALAR"
        },
        {
            "bufferView" : 5,
            "componentType" : 5126,
            "count" : 81,
            "type" : "VEC3"
        },
        {
            "bufferView" : 6,
            "componentType" : 5126,
            "count" : 81,
            "type" : "VEC4"
        },
        {
            "bufferView" : 7,
            "componentType" : 5126,
            "count" : 81,
            "type" : "VEC3"
        }
    ],
    "bufferViews" : [
        {
            "buffer" : 0,
            "byteLength" : 21312,
            "byteOffset" : 0
        },
        {
            "buffer" : 0,
            "byteLength" : 21312,
            "byteOffset" : 21312
        },
        {
            "buffer" : 0,
            "byteLength" : 14208,
            "byteOffset" : 42624
        },
        {
            "buffer" : 0,
            "byteLength" : 14016,
            "byteOffset" : 56832
        },
        {
            "buffer" : 0,
            "byteLength" : 324,
            "byteOffset" : 70848
        },
        {
            "buffer" : 0,
            "byteLength" : 972,
            "byteOffset" : 71172
        },
        {
            "buffer" : 0,
            "byteLength" : 1296,
            "byteOffset" : 72144
        },
        {
            "buffer" : 0,
            "byteLength" : 972,
            "byteOffset" : 73440
        }
    ],
    "buffers" : [
        {
            "byteLength" : 74412,
            "uri" : "data:application/octet-stream;base64,"
        }
    ]
}
