{
    "asset" : {
        "generator" : "Khronos glTF Blender I/O v1.2.75",
        "version" : "2.0"
    },
    "scene" : 0,
    "scenes" : [
        {
            "name" : "Scene",
            "nodes" : [
                1
            ]
        }
    ],
    "nodes" : [
        {
            "mesh" : 0,
            "name" : "Balloon.001",
            "scale" : [
                0,
                0,
                0
            ],
            "translation" : [
                0.06303700804710388,
                -0.04360131546854973,
                -0.05948733538389206
            ]
        },
        {
            "children" : [
                0
            ],
            "name" : "Empty"
        }
    ],
    "animations" : [
        {
            "channels" : [
                {
                    "sampler" : 0,
                    "target" : {
                        "node" : 0,
                        "path" : "translation"
                    }
                },
                {
                    "sampler" : 1,
                    "target" : {
                        "node" : 0,
                        "path" : "rotation"
                    }
                },
                {
                    "sampler" : 2,
                    "target" : {
                        "node" : 0,
                        "path" : "scale"
                    }
                }
            ],
            "name" : "Balloon|Balloon|Balloon|Balloon|Balloon|Balloon|Balloon.001",
            "samplers" : [
                {
                    "input" : 4,
                    "interpolation" : "LINEAR",
                    "output" : 5
                },
                {
                    "input" : 6,
                    "interpolation" : "LINEAR",
                    "output" : 7
                },
                {
                    "input" : 6,
                    "interpolation" : "LINEAR",
                    "output" : 8
                }
            ]
        }
    ],
    "materials" : [
        {
            "doubleSided" : true,
            "emissiveFactor" : [
                0,
                0,
                0
            ],
            "name" : "Globos_Rosa.001",
            "pbrMetallicRoughness" : {
                "baseColorFactor" : [
                    0.800000011920929,
                    0.800000011920929,
                    0.800000011920929,
                    1
                ],
                "metallicFactor" : 1,
                "roughnessFactor" : 0.5527864098548889
            }
        }
    ],
    "meshes" : [
        {
            "name" : "Sphere.002",
            "primitives" : [
                {
                    "attributes" : {
                        "POSITION" : 0,
                        "NORMAL" : 1,
                        "TEXCOORD_0" : 2
                    },
                    "indices" : 3,
                    "material" : 0
                }
            ]
        }
    ],
    "accessors" : [
        {
            "bufferView" : 0,
            "componentType" : 5126,
            "count" : 1742,
            "max" : [
                1.0000001192092896,
                3.4139599800109863,
                0.9999998807907104
            ],
            "min" : [
                -1.000000238418579,
                -5.169450283050537,
                -1.0000001192092896
            ],
            "type" : "VEC3"
        },
        {
            "bufferView" : 1,
            "componentType" : 5126,
            "count" : 1742,
            "type" : "VEC3"
        },
        {
            "bufferView" : 2,
            "componentType" : 5126,
            "count" : 1742,
            "type" : "VEC2"
        },
        {
            "bufferView" : 3,
            "componentType" : 5123,
            "count" : 7008,
            "type" : "SCALAR"
        },
        {
            "bufferView" : 4,
            "componentType" : 5126,
            "count" : 82,
            "max" : [
                3
            ],
            "min" : [
                0.3
            ],
            "type" : "SCALAR"
        },
        {
            "bufferView" : 5,
            "componentType" : 5126,
            "count" : 82,
            "type" : "VEC3"
        },
        {
            "bufferView" : 6,
            "componentType" : 5126,
            "count" : 81,
            "max" : [
                2.966666666666667
            ],
            "min" : [
                0.3
            ],
            "type" : "SCALAR"
        },
        {
            "bufferView" : 7,
            "componentType" : 5126,
            "count" : 81,
            "type" : "VEC4"
        },
        {
            "bufferView" : 8,
            "componentType" : 5126,
            "count" : 81,
            "type" : "VEC3"
        }
    ],
    "bufferViews" : [
        {
            "buffer" : 0,
            "byteLength" : 20904,
            "byteOffset" : 0
        },
        {
            "buffer" : 0,
            "byteLength" : 20904,
            "byteOffset" : 20904
        },
        {
            "buffer" : 0,
            "byteLength" : 13936,
            "byteOffset" : 41808
        },
        {
            "buffer" : 0,
            "byteLength" : 14016,
            "byteOffset" : 55744
        },
        {
            "buffer" : 0,
            "byteLength" : 328,
            "byteOffset" : 69760
        },
        {
            "buffer" : 0,
            "byteLength" : 984,
            "byteOffset" : 70088
        },
        {
            "buffer" : 0,
            "byteLength" : 324,
            "byteOffset" : 71072
        },
        {
            "buffer" : 0,
            "byteLength" : 1296,
            "byteOffset" : 71396
        },
        {
            "buffer" : 0,
            "byteLength" : 972,
            "byteOffset" : 72692
        }
    ],
    "buffers" : [
        {
            "byteLength" : 73664,
            "uri" : "data:application/octet-stream;base64,"
        }
    ]
}
