{
    "asset" : {
        "generator" : "Khronos glTF Blender I/O v1.2.75",
        "version" : "2.0"
    },
    "scene" : 0,
    "scenes" : [
        {
            "name" : "Scene",
            "nodes" : [
                2,
                5
            ]
        }
    ],
    "nodes" : [
        {
            "name" : "Bone"
        },
        {
            "children" : [
                0
            ],
            "name" : "Armature.001",
            "scale" : [
                3.75561785697937,
                3.75561785697937,
                3.75561785697937
            ],
            "translation" : [
                0,
                -21.96831512451172,
                0
            ]
        },
        {
            "children" : [
                1
            ],
            "mesh" : 0,
            "name" : "Cube",
            "scale" : [
                0.2662677764892578,
                0.2662677764892578,
                0.2662677764892578
            ],
            "translation" : [
                0,
                5.849454402923584,
                0
            ]
        },
        {
            "name" : "Bone"
        },
        {
            "mesh" : 1,
            "name" : "Cube.001",
            "skin" : 0
        },
        {
            "children" : [
                4,
                3
            ],
            "name" : "Armature"
        }
    ],
    "animations" : [
        {
            "channels" : [
                {
                    "sampler" : 0,
                    "target" : {
                        "node" : 4,
                        "path" : "translation"
                    }
                },
                {
                    "sampler" : 1,
                    "target" : {
                        "node" : 4,
                        "path" : "rotation"
                    }
                },
                {
                    "sampler" : 2,
                    "target" : {
                        "node" : 4,
                        "path" : "scale"
                    }
                }
            ],
            "name" : "Cube.001Action",
            "samplers" : [
                {
                    "input" : 10,
                    "interpolation" : "LINEAR",
                    "output" : 11
                },
                {
                    "input" : 10,
                    "interpolation" : "LINEAR",
                    "output" : 12
                },
                {
                    "input" : 10,
                    "interpolation" : "LINEAR",
                    "output" : 13
                }
            ]
        }
    ],
    "materials" : [
        {
            "doubleSided" : true,
            "emissiveFactor" : [
                0,
                0,
                0
            ],
            "name" : "Material",
            "pbrMetallicRoughness" : {
                "baseColorFactor" : [
                    0.038887202739715576,
                    0.03412672132253647,
                    0.8000000715255737,
                    1
                ],
                "metallicFactor" : 0,
                "roughnessFactor" : 0.4000000059604645
            }
        },
        {
            "doubleSided" : true,
            "emissiveFactor" : [
                0,
                0,
                0
            ],
            "name" : "Material.001",
            "pbrMetallicRoughness" : {
                "baseColorTexture" : {
                    "index" : 0,
                    "texCoord" : 0
                },
                "metallicFactor" : 0,
                "roughnessFactor" : 0.4000000059604645
            }
        }
    ],
    "meshes" : [
        {
            "name" : "Cube",
            "primitives" : [
                {
                    "attributes" : {
                        "POSITION" : 0,
                        "NORMAL" : 1,
                        "TEXCOORD_0" : 2
                    },
                    "indices" : 3,
                    "material" : 0
                }
            ]
        },
        {
            "name" : "Cube.001",
            "primitives" : [
                {
                    "attributes" : {
                        "POSITION" : 4,
                        "NORMAL" : 5,
                        "TEXCOORD_0" : 6,
                        "JOINTS_0" : 7,
                        "WEIGHTS_0" : 8
                    },
                    "indices" : 3,
                    "material" : 1
                }
            ]
        }
    ],
    "textures" : [
        {
            "source" : 0
        }
    ],
    "images" : [
        {
            "bufferView" : 9,
            "mimeType" : "image/png",
            "name" : "Cube.001 copy"
        }
    ],
    "skins" : [
        {
            "inverseBindMatrices" : 9,
            "joints" : [
                3
            ],
            "name" : "Armature"
        }
    ],
    "accessors" : [
        {
            "bufferView" : 0,
            "componentType" : 5126,
            "count" : 24,
            "max" : [
                1,
                1,
                1
            ],
            "min" : [
                -1,
                -1,
                -1
            ],
            "type" : "VEC3"
        },
        {
            "bufferView" : 1,
            "componentType" : 5126,
            "count" : 24,
            "type" : "VEC3"
        },
        {
            "bufferView" : 2,
            "componentType" : 5126,
            "count" : 24,
            "type" : "VEC2"
        },
        {
            "bufferView" : 3,
            "componentType" : 5123,
            "count" : 36,
            "type" : "SCALAR"
        },
        {
            "bufferView" : 4,
            "componentType" : 5126,
            "count" : 24,
            "max" : [
                -0.9063992500305176,
                4.761168479919434,
                5.695135593414307
            ],
            "min" : [
                -3.4775214195251465,
                4.228632926940918,
                -3.8487839698791504
            ],
            "type" : "VEC3"
        },
        {
            "bufferView" : 5,
            "componentType" : 5126,
            "count" : 24,
            "type" : "VEC3"
        },
        {
            "bufferView" : 6,
            "componentType" : 5126,
            "count" : 24,
            "type" : "VEC2"
        },
        {
            "bufferView" : 7,
            "componentType" : 5123,
            "count" : 24,
            "type" : "VEC4"
        },
        {
            "bufferView" : 8,
            "componentType" : 5126,
            "count" : 24,
            "type" : "VEC4"
        },
        {
            "bufferView" : 10,
            "componentType" : 5126,
            "count" : 1,
            "type" : "MAT4"
        },
        {
            "bufferView" : 11,
            "componentType" : 5126,
            "count" : 61,
            "max" : [
                2.5416666666666665
            ],
            "min" : [
                0.041666666666666664
            ],
            "type" : "SCALAR"
        },
        {
            "bufferView" : 12,
            "componentType" : 5126,
            "count" : 61,
            "type" : "VEC3"
        },
        {
            "bufferView" : 13,
            "componentType" : 5126,
            "count" : 61,
            "type" : "VEC4"
        },
        {
            "bufferView" : 14,
            "componentType" : 5126,
            "count" : 61,
            "type" : "VEC3"
        }
    ],
    "bufferViews" : [
        {
            "buffer" : 0,
            "byteLength" : 288,
            "byteOffset" : 0
        },
        {
            "buffer" : 0,
            "byteLength" : 288,
            "byteOffset" : 288
        },
        {
            "buffer" : 0,
            "byteLength" : 192,
            "byteOffset" : 576
        },
        {
            "buffer" : 0,
            "byteLength" : 72,
            "byteOffset" : 768
        },
        {
            "buffer" : 0,
            "byteLength" : 288,
            "byteOffset" : 840
        },
        {
            "buffer" : 0,
            "byteLength" : 288,
            "byteOffset" : 1128
        },
        {
            "buffer" : 0,
            "byteLength" : 192,
            "byteOffset" : 1416
        },
        {
            "buffer" : 0,
            "byteLength" : 192,
            "byteOffset" : 1608
        },
        {
            "buffer" : 0,
            "byteLength" : 384,
            "byteOffset" : 1800
        },
        {
            "buffer" : 0,
            "byteLength" : 10685,
            "byteOffset" : 2184
        },
        {
            "buffer" : 0,
            "byteLength" : 64,
            "byteOffset" : 12872
        },
        {
            "buffer" : 0,
            "byteLength" : 244,
            "byteOffset" : 12936
        },
        {
            "buffer" : 0,
            "byteLength" : 732,
            "byteOffset" : 13180
        },
        {
            "buffer" : 0,
            "byteLength" : 976,
            "byteOffset" : 13912
        },
        {
            "buffer" : 0,
            "byteLength" : 732,
            "byteOffset" : 14888
        }
    ],
    "buffers" : [
        {
            "byteLength" : 15620,
            "uri" : "data:application/octet-stream;base64,"
        }
    ]
}
