{
    "asset" : {
        "generator" : "Khronos glTF Blender I/O v1.2.75",
        "version" : "2.0"
    },
    "scene" : 0,
    "scenes" : [
        {
            "name" : "Scene",
            "nodes" : [
                3,
                4,
                5,
                6
            ]
        }
    ],
    "nodes" : [
        {
            "name" : "Bone"
        },
        {
            "mesh" : 0,
            "name" : "Cube",
            "skin" : 0
        },
        {
            "mesh" : 1,
            "name" : "P_Star.003",
            "scale" : [
                0,
                0,
                0
            ],
            "translation" : [
                -0.13772638142108917,
                -0.25409549474716187,
                -0.1014665812253952
            ]
        },
        {
            "children" : [
                1,
                2,
                0
            ],
            "name" : "Armature",
            "scale" : [
                0.17159420251846313,
                0.17159420251846313,
                0.17159420251846313
            ]
        },
        {
            "mesh" : 2,
            "name" : "P_Star.001",
            "scale" : [
                0,
                0,
                0
            ],
            "translation" : [
                -0.02363305166363716,
                -0.04360131919384003,
                -0.01741107925772667
            ]
        },
        {
            "mesh" : 3,
            "name" : "P_Star.002",
            "scale" : [
                0,
                0,
                0
            ],
            "translation" : [
                -0.02363305166363716,
                -0.04360131919384003,
                -0.01741107925772667
            ]
        },
        {
            "mesh" : 4,
            "name" : "P_Star.004",
            "scale" : [
                0,
                0,
                0
            ],
            "translation" : [
                -0.02363305166363716,
                -0.04360131919384003,
                -0.01741107925772667
            ]
        }
    ],
    "animations" : [
        {
            "channels" : [
                {
                    "sampler" : 0,
                    "target" : {
                        "node" : 2,
                        "path" : "translation"
                    }
                },
                {
                    "sampler" : 1,
                    "target" : {
                        "node" : 2,
                        "path" : "rotation"
                    }
                },
                {
                    "sampler" : 2,
                    "target" : {
                        "node" : 2,
                        "path" : "scale"
                    }
                }
            ],
            "name" : "P_Star.003|P_Star.003|Balloon|Balloon|Balloon.001Action.001",
            "samplers" : [
                {
                    "input" : 17,
                    "interpolation" : "LINEAR",
                    "output" : 18
                },
                {
                    "input" : 17,
                    "interpolation" : "LINEAR",
                    "output" : 19
                },
                {
                    "input" : 17,
                    "interpolation" : "LINEAR",
                    "output" : 20
                }
            ]
        },
        {
            "channels" : [
                {
                    "sampler" : 0,
                    "target" : {
                        "node" : 4,
                        "path" : "translation"
                    }
                },
                {
                    "sampler" : 1,
                    "target" : {
                        "node" : 4,
                        "path" : "rotation"
                    }
                },
                {
                    "sampler" : 2,
                    "target" : {
                        "node" : 4,
                        "path" : "scale"
                    }
                }
            ],
            "name" : "P_Star.003|P_Star.003|Balloon|Balloon|Balloon.001Action.002",
            "samplers" : [
                {
                    "input" : 17,
                    "interpolation" : "LINEAR",
                    "output" : 21
                },
                {
                    "input" : 17,
                    "interpolation" : "LINEAR",
                    "output" : 22
                },
                {
                    "input" : 17,
                    "interpolation" : "LINEAR",
                    "output" : 23
                }
            ]
        },
        {
            "channels" : [
                {
                    "sampler" : 0,
                    "target" : {
                        "node" : 5,
                        "path" : "translation"
                    }
                },
                {
                    "sampler" : 1,
                    "target" : {
                        "node" : 5,
                        "path" : "rotation"
                    }
                },
                {
                    "sampler" : 2,
                    "target" : {
                        "node" : 5,
                        "path" : "scale"
                    }
                }
            ],
            "name" : "P_Star.003|P_Star.003|Balloon|Balloon|Balloon.001Action.003",
            "samplers" : [
                {
                    "input" : 17,
                    "interpolation" : "LINEAR",
                    "output" : 24
                },
                {
                    "input" : 17,
                    "interpolation" : "LINEAR",
                    "output" : 25
                },
                {
                    "input" : 17,
                    "interpolation" : "LINEAR",
                    "output" : 26
                }
            ]
        },
        {
            "channels" : [
                {
                    "sampler" : 0,
                    "target" : {
                        "node" : 6,
                        "path" : "translation"
                    }
                },
                {
                    "sampler" : 1,
                    "target" : {
                        "node" : 6,
                        "path" : "rotation"
                    }
                },
                {
                    "sampler" : 2,
                    "target" : {
                        "node" : 6,
                        "path" : "scale"
                    }
                }
            ],
            "name" : "P_Star.003|P_Star.003|Balloon|Balloon|Balloon.001Action.004",
            "samplers" : [
                {
                    "input" : 17,
                    "interpolation" : "LINEAR",
                    "output" : 27
                },
                {
                    "input" : 17,
                    "interpolation" : "LINEAR",
                    "output" : 28
                },
                {
                    "input" : 17,
                    "interpolation" : "LINEAR",
                    "output" : 29
                }
            ]
        }
    ],
    "materials" : [
        {
            "doubleSided" : true,
            "emissiveFactor" : [
                0,
                0,
                0
            ],
            "name" : "Material.002",
            "pbrMetallicRoughness" : {
                "baseColorFactor" : [
                    0.8000000715255737,
                    0.07078398764133453,
                    0.08877749741077423,
                    1
                ],
                "metallicFactor" : 0,
                "roughnessFactor" : 0.5
            }
        },
        {
            "doubleSided" : true,
            "emissiveFactor" : [
                0,
                0,
                0
            ],
            "name" : "Estrellita.001",
            "pbrMetallicRoughness" : {
                "baseColorFactor" : [
                    0.6627859473228455,
                    0.8000000715255737,
                    0,
                    1
                ],
                "metallicFactor" : 0.4949495196342468,
                "roughnessFactor" : 0.5527864098548889
            }
        },
        {
            "doubleSided" : true,
            "emissiveFactor" : [
                0,
                0,
                0
            ],
            "name" : "Estrellita.003",
            "pbrMetallicRoughness" : {
                "baseColorFactor" : [
                    0.6627859473228455,
                    0.8000000715255737,
                    0,
                    1
                ],
                "metallicFactor" : 0.4949495196342468,
                "roughnessFactor" : 0.5527864098548889
            }
        },
        {
            "doubleSided" : true,
            "emissiveFactor" : [
                0,
                0,
                0
            ],
            "name" : "Estrellita.004",
            "pbrMetallicRoughness" : {
                "baseColorFactor" : [
                    0.6627859473228455,
                    0.8000000715255737,
                    0,
                    1
                ],
                "metallicFactor" : 0.4949495196342468,
                "roughnessFactor" : 0.5527864098548889
            }
        },
        {
            "doubleSided" : true,
            "emissiveFactor" : [
                0,
                0,
                0
            ],
            "name" : "Estrellita.005",
            "pbrMetallicRoughness" : {
                "baseColorFactor" : [
                    0.6627859473228455,
                    0.8000000715255737,
                    0,
                    1
                ],
                "metallicFactor" : 0.4949495196342468,
                "roughnessFactor" : 0.5527864098548889
            }
        }
    ],
    "meshes" : [
        {
            "name" : "Cube",
            "primitives" : [
                {
                    "attributes" : {
                        "POSITION" : 0,
                        "NORMAL" : 1,
                        "TEXCOORD_0" : 2,
                        "JOINTS_0" : 3,
                        "WEIGHTS_0" : 4
                    },
                    "indices" : 5,
                    "material" : 0
                }
            ]
        },
        {
            "name" : "Star.011",
            "primitives" : [
                {
                    "attributes" : {
                        "POSITION" : 7,
                        "NORMAL" : 8
                    },
                    "indices" : 9,
                    "material" : 1
                }
            ]
        },
        {
            "name" : "Star.030",
            "primitives" : [
                {
                    "attributes" : {
                        "POSITION" : 10,
                        "NORMAL" : 11
                    },
                    "indices" : 12,
                    "material" : 2
                }
            ]
        },
        {
            "name" : "Star.031",
            "primitives" : [
                {
                    "attributes" : {
                        "POSITION" : 13,
                        "NORMAL" : 14
                    },
                    "indices" : 12,
                    "material" : 3
                }
            ]
        },
        {
            "name" : "Star.032",
            "primitives" : [
                {
                    "attributes" : {
                        "POSITION" : 15,
                        "NORMAL" : 16
                    },
                    "indices" : 12,
                    "material" : 4
                }
            ]
        }
    ],
    "skins" : [
        {
            "inverseBindMatrices" : 6,
            "joints" : [
                0
            ],
            "name" : "Armature"
        }
    ],
    "accessors" : [
        {
            "bufferView" : 0,
            "componentType" : 5126,
            "count" : 182,
            "max" : [
                0.2986104488372803,
                0.4759470820426941,
                0.29861027002334595
            ],
            "min" : [
                -0.2986103296279907,
                -0.5324069261550903,
                -0.29861050844192505
            ],
            "type" : "VEC3"
        },
        {
            "bufferView" : 1,
            "componentType" : 5126,
            "count" : 182,
            "type" : "VEC3"
        },
        {
            "bufferView" : 2,
            "componentType" : 5126,
            "count" : 182,
            "type" : "VEC2"
        },
        {
            "bufferView" : 3,
            "componentType" : 5123,
            "count" : 182,
            "type" : "VEC4"
        },
        {
            "bufferView" : 4,
            "componentType" : 5126,
            "count" : 182,
            "type" : "VEC4"
        },
        {
            "bufferView" : 5,
            "componentType" : 5123,
            "count" : 270,
            "type" : "SCALAR"
        },
        {
            "bufferView" : 6,
            "componentType" : 5126,
            "count" : 1,
            "type" : "MAT4"
        },
        {
            "bufferView" : 7,
            "componentType" : 5126,
            "count" : 978,
            "max" : [
                0.7668129205703735,
                0.25,
                0.8987535238265991
            ],
            "min" : [
                -0.9443292617797852,
                -0.25,
                -0.8655537366867065
            ],
            "type" : "VEC3"
        },
        {
            "bufferView" : 8,
            "componentType" : 5126,
            "count" : 978,
            "type" : "VEC3"
        },
        {
            "bufferView" : 9,
            "componentType" : 5123,
            "count" : 5856,
            "type" : "SCALAR"
        },
        {
            "bufferView" : 10,
            "componentType" : 5126,
            "count" : 978,
            "max" : [
                18.07620620727539,
                2.14939284324646,
                2.0896506309509277
            ],
            "min" : [
                16.365062713623047,
                1.64939284324646,
                0.3253434896469116
            ],
            "type" : "VEC3"
        },
        {
            "bufferView" : 11,
            "componentType" : 5126,
            "count" : 978,
            "type" : "VEC3"
        },
        {
            "bufferView" : 12,
            "componentType" : 5123,
            "count" : 5856,
            "type" : "SCALAR"
        },
        {
            "bufferView" : 13,
            "componentType" : 5126,
            "count" : 978,
            "max" : [
                18.07620620727539,
                2.14939284324646,
                2.0896506309509277
            ],
            "min" : [
                16.365062713623047,
                1.64939284324646,
                0.3253434896469116
            ],
            "type" : "VEC3"
        },
        {
            "bufferView" : 14,
            "componentType" : 5126,
            "count" : 978,
            "type" : "VEC3"
        },
        {
            "bufferView" : 15,
            "componentType" : 5126,
            "count" : 978,
            "max" : [
                18.07620620727539,
                2.14939284324646,
                2.0896506309509277
            ],
            "min" : [
                16.365062713623047,
                1.64939284324646,
                0.3253434896469116
            ],
            "type" : "VEC3"
        },
        {
            "bufferView" : 16,
            "componentType" : 5126,
            "count" : 978,
            "type" : "VEC3"
        },
        {
            "bufferView" : 17,
            "componentType" : 5126,
            "count" : 81,
            "max" : [
                2.7
            ],
            "min" : [
                0.03333333333333333
            ],
            "type" : "SCALAR"
        },
        {
            "bufferView" : 18,
            "componentType" : 5126,
            "count" : 81,
            "type" : "VEC3"
        },
        {
            "bufferView" : 19,
            "componentType" : 5126,
            "count" : 81,
            "type" : "VEC4"
        },
        {
            "bufferView" : 20,
            "componentType" : 5126,
            "count" : 81,
            "type" : "VEC3"
        },
        {
            "bufferView" : 21,
            "componentType" : 5126,
            "count" : 81,
            "type" : "VEC3"
        },
        {
            "bufferView" : 22,
            "componentType" : 5126,
            "count" : 81,
            "type" : "VEC4"
        },
        {
            "bufferView" : 23,
            "componentType" : 5126,
            "count" : 81,
            "type" : "VEC3"
        },
        {
            "bufferView" : 24,
            "componentType" : 5126,
            "count" : 81,
            "type" : "VEC3"
        },
        {
            "bufferView" : 25,
            "componentType" : 5126,
            "count" : 81,
            "type" : "VEC4"
        },
        {
            "bufferView" : 26,
            "componentType" : 5126,
            "count" : 81,
            "type" : "VEC3"
        },
        {
            "bufferView" : 27,
            "componentType" : 5126,
            "count" : 81,
            "type" : "VEC3"
        },
        {
            "bufferView" : 28,
            "componentType" : 5126,
            "count" : 81,
            "type" : "VEC4"
        },
        {
            "bufferView" : 29,
            "componentType" : 5126,
            "count" : 81,
            "type" : "VEC3"
        }
    ],
    "bufferViews" : [
        {
            "buffer" : 0,
            "byteLength" : 2184,
            "byteOffset" : 0
        },
        {
            "buffer" : 0,
            "byteLength" : 2184,
            "byteOffset" : 2184
        },
        {
            "buffer" : 0,
            "byteLength" : 1456,
            "byteOffset" : 4368
        },
        {
            "buffer" : 0,
            "byteLength" : 1456,
            "byteOffset" : 5824
        },
        {
            "buffer" : 0,
            "byteLength" : 2912,
            "byteOffset" : 7280
        },
        {
            "buffer" : 0,
            "byteLength" : 540,
            "byteOffset" : 10192
        },
        {
            "buffer" : 0,
            "byteLength" : 64,
            "byteOffset" : 10732
        },
        {
            "buffer" : 0,
            "byteLength" : 11736,
            "byteOffset" : 10796
        },
        {
            "buffer" : 0,
            "byteLength" : 11736,
            "byteOffset" : 22532
        },
        {
            "buffer" : 0,
            "byteLength" : 11712,
            "byteOffset" : 34268
        },
        {
            "buffer" : 0,
            "byteLength" : 11736,
            "byteOffset" : 45980
        },
        {
            "buffer" : 0,
            "byteLength" : 11736,
            "byteOffset" : 57716
        },
        {
            "buffer" : 0,
            "byteLength" : 11712,
            "byteOffset" : 69452
        },
        {
            "buffer" : 0,
            "byteLength" : 11736,
            "byteOffset" : 81164
        },
        {
            "buffer" : 0,
            "byteLength" : 11736,
            "byteOffset" : 92900
        },
        {
            "buffer" : 0,
            "byteLength" : 11736,
            "byteOffset" : 104636
        },
        {
            "buffer" : 0,
            "byteLength" : 11736,
            "byteOffset" : 116372
        },
        {
            "buffer" : 0,
            "byteLength" : 324,
            "byteOffset" : 128108
        },
        {
            "buffer" : 0,
            "byteLength" : 972,
            "byteOffset" : 128432
        },
        {
            "buffer" : 0,
            "byteLength" : 1296,
            "byteOffset" : 129404
        },
        {
            "buffer" : 0,
            "byteLength" : 972,
            "byteOffset" : 130700
        },
        {
            "buffer" : 0,
            "byteLength" : 972,
            "byteOffset" : 131672
        },
        {
            "buffer" : 0,
            "byteLength" : 1296,
            "byteOffset" : 132644
        },
        {
            "buffer" : 0,
            "byteLength" : 972,
            "byteOffset" : 133940
        },
        {
            "buffer" : 0,
            "byteLength" : 972,
            "byteOffset" : 134912
        },
        {
            "buffer" : 0,
            "byteLength" : 1296,
            "byteOffset" : 135884
        },
        {
            "buffer" : 0,
            "byteLength" : 972,
            "byteOffset" : 137180
        },
        {
            "buffer" : 0,
            "byteLength" : 972,
            "byteOffset" : 138152
        },
        {
            "buffer" : 0,
            "byteLength" : 1296,
            "byteOffset" : 139124
        },
        {
            "buffer" : 0,
            "byteLength" : 972,
            "byteOffset" : 140420
        }
    ],
    "buffers" : [
        {
            "byteLength" : 141392,
            "uri" : "data:application/octet-stream;base64,"
        }
    ]
}
