{
    "asset" : {
        "generator" : "Khronos glTF Blender I/O v1.2.75",
        "version" : "2.0"
    },
    "scene" : 0,
    "scenes" : [
        {
            "name" : "Scene",
            "nodes" : [
                0
            ]
        }
    ],
    "nodes" : [
        {
            "mesh" : 0,
            "name" : "Balloon",
            "scale" : [
                0,
                0,
                0
            ],
            "translation" : [
                -0.0044585540890693665,
                -0.04360131546854973,
                -0.1269828975200653
            ]
        }
    ],
    "animations" : [
        {
            "channels" : [
                {
                    "sampler" : 0,
                    "target" : {
                        "node" : 0,
                        "path" : "translation"
                    }
                },
                {
                    "sampler" : 1,
                    "target" : {
                        "node" : 0,
                        "path" : "rotation"
                    }
                },
                {
                    "sampler" : 2,
                    "target" : {
                        "node" : 0,
                        "path" : "scale"
                    }
                }
            ],
            "name" : "Balloon|Balloon|Balloon|Balloon|Balloon|Balloon|Balloon.001Acti",
            "samplers" : [
                {
                    "input" : 16,
                    "interpolation" : "LINEAR",
                    "output" : 17
                },
                {
                    "input" : 16,
                    "interpolation" : "LINEAR",
                    "output" : 18
                },
                {
                    "input" : 16,
                    "interpolation" : "LINEAR",
                    "output" : 19
                }
            ]
        }
    ],
    "materials" : [
        {
            "doubleSided" : true,
            "emissiveFactor" : [
                0,
                0,
                0
            ],
            "name" : "Globos_Rosa",
            "pbrMetallicRoughness" : {
                "baseColorFactor" : [
                    0.800000011920929,
                    0.800000011920929,
                    0.800000011920929,
                    1
                ],
                "metallicFactor" : 1,
                "roughnessFactor" : 0.5527864098548889
            }
        },
        {
            "doubleSided" : true,
            "emissiveFactor" : [
                0,
                0,
                0
            ],
            "name" : "Globos_Rosa.001",
            "pbrMetallicRoughness" : {
                "baseColorFactor" : [
                    0.800000011920929,
                    0.800000011920929,
                    0.800000011920929,
                    1
                ],
                "metallicFactor" : 1,
                "roughnessFactor" : 0.5527864098548889
            }
        },
        {
            "doubleSided" : true,
            "emissiveFactor" : [
                0,
                0,
                0
            ],
            "name" : "Globos_Rosa.002",
            "pbrMetallicRoughness" : {
                "baseColorFactor" : [
                    0.800000011920929,
                    0.800000011920929,
                    0.800000011920929,
                    1
                ],
                "metallicFactor" : 1,
                "roughnessFactor" : 0.5527864098548889
            }
        },
        {
            "doubleSided" : true,
            "emissiveFactor" : [
                0,
                0,
                0
            ],
            "name" : "Globos_Rosa.003",
            "pbrMetallicRoughness" : {
                "baseColorFactor" : [
                    0.800000011920929,
                    0.800000011920929,
                    0.800000011920929,
                    1
                ],
                "metallicFactor" : 1,
                "roughnessFactor" : 0.5527864098548889
            }
        }
    ],
    "meshes" : [
        {
            "name" : "Sphere.001",
            "primitives" : [
                {
                    "attributes" : {
                        "POSITION" : 0,
                        "NORMAL" : 1,
                        "TEXCOORD_0" : 2
                    },
                    "indices" : 3,
                    "material" : 0
                },
                {
                    "attributes" : {
                        "POSITION" : 4,
                        "NORMAL" : 5,
                        "TEXCOORD_0" : 6
                    },
                    "indices" : 7,
                    "material" : 1
                },
                {
                    "attributes" : {
                        "POSITION" : 8,
                        "NORMAL" : 9,
                        "TEXCOORD_0" : 10
                    },
                    "indices" : 11,
                    "material" : 2
                },
                {
                    "attributes" : {
                        "POSITION" : 12,
                        "NORMAL" : 13,
                        "TEXCOORD_0" : 14
                    },
                    "indices" : 15,
                    "material" : 3
                }
            ]
        }
    ],
    "accessors" : [
        {
            "bufferView" : 0,
            "componentType" : 5126,
            "count" : 1742,
            "max" : [
                1.0000001192092896,
                3.4139599800109863,
                0.9999998807907104
            ],
            "min" : [
                -1.000000238418579,
                -5.169450283050537,
                -1.0000001192092896
            ],
            "type" : "VEC3"
        },
        {
            "bufferView" : 1,
            "componentType" : 5126,
            "count" : 1742,
            "type" : "VEC3"
        },
        {
            "bufferView" : 2,
            "componentType" : 5126,
            "count" : 1742,
            "type" : "VEC2"
        },
        {
            "bufferView" : 3,
            "componentType" : 5123,
            "count" : 7008,
            "type" : "SCALAR"
        },
        {
            "bufferView" : 4,
            "componentType" : 5126,
            "count" : 1841,
            "max" : [
                5.36244010925293,
                2.966996669769287,
                4.151491641998291
            ],
            "min" : [
                3.3624398708343506,
                -5.616413593292236,
                2.151491641998291
            ],
            "type" : "VEC3"
        },
        {
            "bufferView" : 5,
            "componentType" : 5126,
            "count" : 1841,
            "type" : "VEC3"
        },
        {
            "bufferView" : 6,
            "componentType" : 5126,
            "count" : 1841,
            "type" : "VEC2"
        },
        {
            "bufferView" : 7,
            "componentType" : 5123,
            "count" : 7008,
            "type" : "SCALAR"
        },
        {
            "bufferView" : 8,
            "componentType" : 5126,
            "count" : 1808,
            "max" : [
                -5.312355041503906,
                3.5851857662200928,
                9.762140274047852
            ],
            "min" : [
                -7.312355041503906,
                -4.998224258422852,
                7.762140274047852
            ],
            "type" : "VEC3"
        },
        {
            "bufferView" : 9,
            "componentType" : 5126,
            "count" : 1808,
            "type" : "VEC3"
        },
        {
            "bufferView" : 10,
            "componentType" : 5126,
            "count" : 1808,
            "type" : "VEC2"
        },
        {
            "bufferView" : 11,
            "componentType" : 5123,
            "count" : 7008,
            "type" : "SCALAR"
        },
        {
            "bufferView" : 12,
            "componentType" : 5126,
            "count" : 1843,
            "max" : [
                -2.1561765670776367,
                3.499572992324829,
                5.381070613861084
            ],
            "min" : [
                -4.156176567077637,
                -5.083837509155273,
                3.381070613861084
            ],
            "type" : "VEC3"
        },
        {
            "bufferView" : 13,
            "componentType" : 5126,
            "count" : 1843,
            "type" : "VEC3"
        },
        {
            "bufferView" : 14,
            "componentType" : 5126,
            "count" : 1843,
            "type" : "VEC2"
        },
        {
            "bufferView" : 15,
            "componentType" : 5123,
            "count" : 7008,
            "type" : "SCALAR"
        },
        {
            "bufferView" : 16,
            "componentType" : 5126,
            "count" : 81,
            "max" : [
                2.933333333333333
            ],
            "min" : [
                0.26666666666666666
            ],
            "type" : "SCALAR"
        },
        {
            "bufferView" : 17,
            "componentType" : 5126,
            "count" : 81,
            "type" : "VEC3"
        },
        {
            "bufferView" : 18,
            "componentType" : 5126,
            "count" : 81,
            "type" : "VEC4"
        },
        {
            "bufferView" : 19,
            "componentType" : 5126,
            "count" : 81,
            "type" : "VEC3"
        }
    ],
    "bufferViews" : [
        {
            "buffer" : 0,
            "byteLength" : 20904,
            "byteOffset" : 0
        },
        {
            "buffer" : 0,
            "byteLength" : 20904,
            "byteOffset" : 20904
        },
        {
            "buffer" : 0,
            "byteLength" : 13936,
            "byteOffset" : 41808
        },
        {
            "buffer" : 0,
            "byteLength" : 14016,
            "byteOffset" : 55744
        },
        {
            "buffer" : 0,
            "byteLength" : 22092,
            "byteOffset" : 69760
        },
        {
            "buffer" : 0,
            "byteLength" : 22092,
            "byteOffset" : 91852
        },
        {
            "buffer" : 0,
            "byteLength" : 14728,
            "byteOffset" : 113944
        },
        {
            "buffer" : 0,
            "byteLength" : 14016,
            "byteOffset" : 128672
        },
        {
            "buffer" : 0,
            "byteLength" : 21696,
            "byteOffset" : 142688
        },
        {
            "buffer" : 0,
            "byteLength" : 21696,
            "byteOffset" : 164384
        },
        {
            "buffer" : 0,
            "byteLength" : 14464,
            "byteOffset" : 186080
        },
        {
            "buffer" : 0,
            "byteLength" : 14016,
            "byteOffset" : 200544
        },
        {
            "buffer" : 0,
            "byteLength" : 22116,
            "byteOffset" : 214560
        },
        {
            "buffer" : 0,
            "byteLength" : 22116,
            "byteOffset" : 236676
        },
        {
            "buffer" : 0,
            "byteLength" : 14744,
            "byteOffset" : 258792
        },
        {
            "buffer" : 0,
            "byteLength" : 14016,
            "byteOffset" : 273536
        },
        {
            "buffer" : 0,
            "byteLength" : 324,
            "byteOffset" : 287552
        },
        {
            "buffer" : 0,
            "byteLength" : 972,
            "byteOffset" : 287876
        },
        {
            "buffer" : 0,
            "byteLength" : 1296,
            "byteOffset" : 288848
        },
        {
            "buffer" : 0,
            "byteLength" : 972,
            "byteOffset" : 290144
        }
    ],
    "buffers" : [
        {
            "byteLength" : 291116,
            "uri" : "data:application/octet-stream;base64,"
        }
    ]
}
