{
    "asset" : {
        "generator" : "Khronos glTF Blender I/O v1.2.75",
        "version" : "2.0"
    },
    "scene" : 0,
    "scenes" : [
        {
            "name" : "Scene",
            "nodes" : [
                0
            ]
        }
    ],
    "nodes" : [
        {
            "mesh" : 0,
            "name" : "P_Star.013",
            "scale" : [
                0,
                0,
                0
            ],
            "translation" : [
                -0.004450924228876829,
                -0.04360131919384003,
                0.024731028825044632
            ]
        }
    ],
    "animations" : [
        {
            "channels" : [
                {
                    "sampler" : 0,
                    "target" : {
                        "node" : 0,
                        "path" : "translation"
                    }
                },
                {
                    "sampler" : 1,
                    "target" : {
                        "node" : 0,
                        "path" : "rotation"
                    }
                },
                {
                    "sampler" : 2,
                    "target" : {
                        "node" : 0,
                        "path" : "scale"
                    }
                }
            ],
            "name" : "P_Star.013|P_Star.013|Balloon|Balloon|Balloon.001Action.001|Bal",
            "samplers" : [
                {
                    "input" : 12,
                    "interpolation" : "LINEAR",
                    "output" : 13
                },
                {
                    "input" : 12,
                    "interpolation" : "LINEAR",
                    "output" : 14
                },
                {
                    "input" : 12,
                    "interpolation" : "LINEAR",
                    "output" : 15
                }
            ]
        }
    ],
    "materials" : [
        {
            "doubleSided" : true,
            "emissiveFactor" : [
                0,
                0,
                0
            ],
            "name" : "Estrellita",
            "pbrMetallicRoughness" : {
                "baseColorFactor" : [
                    0.6627859473228455,
                    0.8000000715255737,
                    0,
                    1
                ],
                "metallicFactor" : 0.4949495196342468,
                "roughnessFactor" : 0.5527864098548889
            }
        },
        {
            "doubleSided" : true,
            "emissiveFactor" : [
                0,
                0,
                0
            ],
            "name" : "Globos_Rosa.004",
            "pbrMetallicRoughness" : {
                "baseColorFactor" : [
                    0.800000011920929,
                    0.800000011920929,
                    0.800000011920929,
                    1
                ],
                "metallicFactor" : 1,
                "roughnessFactor" : 0.5527864098548889
            }
        },
        {
            "doubleSided" : true,
            "emissiveFactor" : [
                0,
                0,
                0
            ],
            "name" : "GLAZZZE",
            "pbrMetallicRoughness" : {
                "baseColorFactor" : [
                    0.800000011920929,
                    0.800000011920929,
                    0.800000011920929,
                    1
                ],
                "metallicFactor" : 0.20202022790908813,
                "roughnessFactor" : 0.5527864098548889
            }
        }
    ],
    "meshes" : [
        {
            "name" : "Star.014",
            "primitives" : [
                {
                    "attributes" : {
                        "POSITION" : 0,
                        "NORMAL" : 1,
                        "TEXCOORD_0" : 2
                    },
                    "indices" : 3,
                    "material" : 0
                },
                {
                    "attributes" : {
                        "POSITION" : 4,
                        "NORMAL" : 5,
                        "TEXCOORD_0" : 6
                    },
                    "indices" : 7,
                    "material" : 1
                },
                {
                    "attributes" : {
                        "POSITION" : 8,
                        "NORMAL" : 9,
                        "TEXCOORD_0" : 10
                    },
                    "indices" : 11,
                    "material" : 2
                }
            ]
        }
    ],
    "accessors" : [
        {
            "bufferView" : 0,
            "componentType" : 5126,
            "count" : 13692,
            "max" : [
                2.3958468437194824,
                0.9928799867630005,
                1.2404625415802002
            ],
            "min" : [
                -2.563930034637451,
                -0.8046693801879883,
                -3.9436755180358887
            ],
            "type" : "VEC3"
        },
        {
            "bufferView" : 1,
            "componentType" : 5126,
            "count" : 13692,
            "type" : "VEC3"
        },
        {
            "bufferView" : 2,
            "componentType" : 5126,
            "count" : 13692,
            "type" : "VEC2"
        },
        {
            "bufferView" : 3,
            "componentType" : 5123,
            "count" : 81984,
            "type" : "SCALAR"
        },
        {
            "bufferView" : 4,
            "componentType" : 5126,
            "count" : 1784,
            "max" : [
                1.1514884233474731,
                4.144239902496338,
                -0.25767457485198975
            ],
            "min" : [
                -1.2821805477142334,
                -6.300347805023193,
                -2.691343307495117
            ],
            "type" : "VEC3"
        },
        {
            "bufferView" : 5,
            "componentType" : 5126,
            "count" : 1784,
            "type" : "VEC3"
        },
        {
            "bufferView" : 6,
            "componentType" : 5126,
            "count" : 1784,
            "type" : "VEC2"
        },
        {
            "bufferView" : 7,
            "componentType" : 5123,
            "count" : 7008,
            "type" : "SCALAR"
        },
        {
            "bufferView" : 8,
            "componentType" : 5126,
            "count" : 9078,
            "max" : [
                0.819884181022644,
                -4.8013811111450195,
                -0.3019707202911377
            ],
            "min" : [
                -1.7011439800262451,
                -6.260982036590576,
                -2.920271396636963
            ],
            "type" : "VEC3"
        },
        {
            "bufferView" : 9,
            "componentType" : 5126,
            "count" : 9078,
            "type" : "VEC3"
        },
        {
            "bufferView" : 10,
            "componentType" : 5126,
            "count" : 9078,
            "type" : "VEC2"
        },
        {
            "bufferView" : 11,
            "componentType" : 5123,
            "count" : 52692,
            "type" : "SCALAR"
        },
        {
            "bufferView" : 12,
            "componentType" : 5126,
            "count" : 81,
            "max" : [
                2.7
            ],
            "min" : [
                0.03333333333333333
            ],
            "type" : "SCALAR"
        },
        {
            "bufferView" : 13,
            "componentType" : 5126,
            "count" : 81,
            "type" : "VEC3"
        },
        {
            "bufferView" : 14,
            "componentType" : 5126,
            "count" : 81,
            "type" : "VEC4"
        },
        {
            "bufferView" : 15,
            "componentType" : 5126,
            "count" : 81,
            "type" : "VEC3"
        }
    ],
    "bufferViews" : [
        {
            "buffer" : 0,
            "byteLength" : 164304,
            "byteOffset" : 0
        },
        {
            "buffer" : 0,
            "byteLength" : 164304,
            "byteOffset" : 164304
        },
        {
            "buffer" : 0,
            "byteLength" : 109536,
            "byteOffset" : 328608
        },
        {
            "buffer" : 0,
            "byteLength" : 163968,
            "byteOffset" : 438144
        },
        {
            "buffer" : 0,
            "byteLength" : 21408,
            "byteOffset" : 602112
        },
        {
            "buffer" : 0,
            "byteLength" : 21408,
            "byteOffset" : 623520
        },
        {
            "buffer" : 0,
            "byteLength" : 14272,
            "byteOffset" : 644928
        },
        {
            "buffer" : 0,
            "byteLength" : 14016,
            "byteOffset" : 659200
        },
        {
            "buffer" : 0,
            "byteLength" : 108936,
            "byteOffset" : 673216
        },
        {
            "buffer" : 0,
            "byteLength" : 108936,
            "byteOffset" : 782152
        },
        {
            "buffer" : 0,
            "byteLength" : 72624,
            "byteOffset" : 891088
        },
        {
            "buffer" : 0,
            "byteLength" : 105384,
            "byteOffset" : 963712
        },
        {
            "buffer" : 0,
            "byteLength" : 324,
            "byteOffset" : 1069096
        },
        {
            "buffer" : 0,
            "byteLength" : 972,
            "byteOffset" : 1069420
        },
        {
            "buffer" : 0,
            "byteLength" : 1296,
            "byteOffset" : 1070392
        },
        {
            "buffer" : 0,
            "byteLength" : 972,
            "byteOffset" : 1071688
        }
    ],
    "buffers" : [
        {
            "byteLength" : 1072660,
            "uri" : "data:application/octet-stream;base64,"
        }
    ]
}
